<svg width="31" height="31" viewBox="0 0 31 31" fill="none" xmlns="http://www.w3.org/2000/svg">
<path d="M24.4985 28.5017H2.49854V6.50171H14.7185C15.2708 6.50171 15.7185 6.05399 15.7185 5.50171C15.7185 4.94942 15.2708 4.50171 14.7185 4.50171H2.49854C1.9681 4.50171 1.45939 4.71242 1.08432 5.0875C0.709249 5.46257 0.498535 5.97128 0.498535 6.50171V28.5017C0.498535 29.0321 0.709249 29.5408 1.08432 29.9159C1.45939 30.291 1.9681 30.5017 2.49854 30.5017H24.4985C25.029 30.5017 25.5377 30.291 25.9127 29.9159C26.2878 29.5408 26.4985 29.0321 26.4985 28.5017V16.5017C26.4985 15.9494 26.0508 15.5017 25.4985 15.5017C24.9463 15.5017 24.4985 15.9494 24.4985 16.5017V28.5017Z" fill="#42526E"/>
<path d="M30.0285 4.34165L26.6585 0.971653C26.5089 0.821684 26.3313 0.702697 26.1356 0.621511C25.94 0.540325 25.7303 0.498535 25.5185 0.498535C25.3067 0.498535 25.097 0.540325 24.9014 0.621511C24.7057 0.702697 24.5281 0.821684 24.3785 0.971653L11.2718 14.1548C10.8775 14.5515 10.6018 15.0504 10.4761 15.5954L9.55849 19.5717C9.5112 19.8048 9.51618 20.0456 9.57305 20.2766C9.62992 20.5076 9.73729 20.7231 9.88742 20.9077C10.0375 21.0922 10.2267 21.2412 10.4413 21.3439C10.6559 21.4466 10.8906 21.5005 11.1285 21.5017C11.2515 21.5152 11.3755 21.5152 11.4985 21.5017L15.4855 20.6221C16.0488 20.4978 16.5644 20.2136 16.9705 19.8038L30.0285 6.62165C30.1785 6.47209 30.2974 6.29441 30.3786 6.09879C30.4598 5.90317 30.5016 5.69345 30.5016 5.48165C30.5016 5.26985 30.4598 5.06014 30.3786 4.86451C30.2974 4.66889 30.1785 4.49121 30.0285 4.34165ZM15.3085 18.5817L11.6485 19.3917L12.4985 15.7617L22.8185 5.37165L25.6385 8.19165L15.3085 18.5817ZM26.7685 7.06165L23.9485 4.24165L25.4985 2.66165L28.3385 5.50165L26.7685 7.06165Z" fill="#42526E"/>
</svg>
